<?xml version="1.0" encoding="UTF-8" standalone="no"?>
<!DOCTYPE svg PUBLIC "-//W3C//DTD SVG 1.1//EN"
 "http://www.w3.org/Graphics/SVG/1.1/DTD/svg11.dtd">
<!-- Generated by graphviz version 12.1.2 (20240928.0832)
 -->
<!-- Title: G Pages: 1 -->
<svg width="1073pt" height="648pt"
 viewBox="0.00 0.00 1072.55 648.30" xmlns="http://www.w3.org/2000/svg" xmlns:xlink="http://www.w3.org/1999/xlink">
<g id="graph0" class="graph" transform="scale(1 1) rotate(0) translate(14.4 633.9)">
<title>G</title>
<polygon fill="white" stroke="none" points="-14.4,14.4 -14.4,-633.9 1058.15,-633.9 1058.15,14.4 -14.4,14.4"/>
<!-- SCC0 -->
<g id="node1" class="node">
<title>SCC0</title>
<text text-anchor="middle" x="580.25" y="-596.45" font-family="Times,serif" font-size="14.00">x = x (1)</text>
</g>
<!-- SCC1 -->
<g id="node2" class="node">
<title>SCC1</title>
<path fill="none" stroke="black" d="M204,-305C204,-305 296.5,-305 296.5,-305 302.5,-305 308.5,-311 308.5,-317 308.5,-317 308.5,-337 308.5,-337 308.5,-343 302.5,-349 296.5,-349 296.5,-349 204,-349 204,-349 198,-349 192,-343 192,-337 192,-337 192,-317 192,-317 192,-311 198,-305 204,-305"/>
<text text-anchor="middle" x="250.25" y="-331.7" font-family="Times,serif" font-size="14.00">x ◇ x = x ◇ y (38)</text>
<text text-anchor="middle" x="250.25" y="-313.7" font-family="Times,serif" font-size="14.00">x ◇ y = x ◇ z (42)</text>
</g>
<!-- SCC0&#45;&#45;SCC1 -->
<g id="edge1" class="edge">
<title>SCC0&#45;&#45;SCC1</title>
<path fill="none" stroke="black" d="M548.13,-595.37C506.31,-587.36 432.6,-568.56 382.25,-529.5 318.31,-479.9 275.61,-390.16 258.58,-349.3"/>
</g>
<!-- SCC2 -->
<g id="node3" class="node">
<title>SCC2</title>
<path fill="none" stroke="black" d="M887,-305C887,-305 979.5,-305 979.5,-305 985.5,-305 991.5,-311 991.5,-317 991.5,-317 991.5,-337 991.5,-337 991.5,-343 985.5,-349 979.5,-349 979.5,-349 887,-349 887,-349 881,-349 875,-343 875,-337 875,-337 875,-317 875,-317 875,-311 881,-305 887,-305"/>
<text text-anchor="middle" x="933.25" y="-331.7" font-family="Times,serif" font-size="14.00">x ◇ x = y ◇ x (39)</text>
<text text-anchor="middle" x="933.25" y="-313.7" font-family="Times,serif" font-size="14.00">x ◇ y = z ◇ y (45)</text>
</g>
<!-- SCC0&#45;&#45;SCC2 -->
<g id="edge2" class="edge">
<title>SCC0&#45;&#45;SCC2</title>
<path fill="none" stroke="black" d="M612.4,-597.55C683.99,-590.32 853.33,-569.33 892.25,-529.5 940.53,-480.1 939.25,-390.25 935.75,-349.33"/>
</g>
<!-- SCC3 -->
<g id="node4" class="node">
<title>SCC3</title>
<text text-anchor="middle" x="189.25" y="-507.2" font-family="Times,serif" font-size="14.00">x ◇ y = y ◇ x (43)</text>
</g>
<!-- SCC0&#45;&#45;SCC3 -->
<g id="edge21" class="edge">
<title>SCC0&#45;&#45;SCC3</title>
<path fill="none" stroke="black" d="M547.92,-593.22C481.87,-578.36 330.65,-544.32 247.2,-525.54"/>
</g>
<!-- SCC5 -->
<g id="node6" class="node">
<title>SCC5</title>
<text text-anchor="middle" x="58.25" y="-228.2" font-family="Times,serif" font-size="14.00">x ◇ x = y ◇ y (40)</text>
</g>
<!-- SCC0&#45;&#45;SCC5 -->
<g id="edge20" class="edge">
<title>SCC0&#45;&#45;SCC5</title>
<path fill="none" stroke="black" d="M548.2,-599.77C454.56,-597 183.88,-584.31 118.25,-529.5 32.93,-458.25 47.77,-302.01 55.4,-250.41"/>
</g>
<!-- SCC6 -->
<g id="node7" class="node">
<title>SCC6</title>
<text text-anchor="middle" x="490.25" y="-507.2" font-family="Times,serif" font-size="14.00">x ◇ (y ◇ z) = (x ◇ y) ◇ z (4512)</text>
</g>
<!-- SCC0&#45;&#45;SCC6 -->
<g id="edge22" class="edge">
<title>SCC0&#45;&#45;SCC6</title>
<path fill="none" stroke="black" d="M562.9,-583.53C546.96,-567.95 523.47,-544.98 507.55,-529.42"/>
</g>
<!-- SCC13 -->
<g id="node14" class="node">
<title>SCC13</title>
<text text-anchor="middle" x="962.25" y="-133.7" font-family="Times,serif" font-size="14.00">x = (y ◇ x) ◇ (x ◇ z) (168)</text>
</g>
<!-- SCC0&#45;&#45;SCC13 -->
<g id="edge12" class="edge">
<title>SCC0&#45;&#45;SCC13</title>
<path fill="none" stroke="black" d="M612.61,-599.92C676.04,-597.52 819.56,-585.76 923.25,-529.5 982.09,-497.58 1029.25,-489.44 1029.25,-422.5 1029.25,-422.5 1029.25,-422.5 1029.25,-326 1029.25,-259.79 991.56,-187.71 972.72,-155.8"/>
</g>
<!-- SCC14 -->
<g id="node15" class="node">
<title>SCC14</title>
<text text-anchor="middle" x="817.25" y="-507.2" font-family="Times,serif" font-size="14.00">x = (x ◇ x) ◇ x (23)</text>
</g>
<!-- SCC0&#45;&#45;SCC14 -->
<g id="edge13" class="edge">
<title>SCC0&#45;&#45;SCC14</title>
<path fill="none" stroke="black" d="M612.21,-588.63C653.28,-573.38 724.82,-546.82 771.61,-529.45"/>
</g>
<!-- SCC15 -->
<g id="node16" class="node">
<title>SCC15</title>
<text text-anchor="middle" x="670.25" y="-507.2" font-family="Times,serif" font-size="14.00">x = x ◇ (x ◇ x) (8)</text>
</g>
<!-- SCC0&#45;&#45;SCC15 -->
<g id="edge32" class="edge">
<title>SCC0&#45;&#45;SCC15</title>
<path fill="none" stroke="black" d="M597.6,-583.53C613.54,-567.95 637.03,-544.98 652.95,-529.42"/>
</g>
<!-- SCC12 -->
<g id="node13" class="node">
<title>SCC12</title>
<path fill="none" stroke="black" d="M311.88,-116C311.88,-116 406.62,-116 406.62,-116 412.62,-116 418.62,-122 418.62,-128 418.62,-128 418.62,-148 418.62,-148 418.62,-154 412.62,-160 406.62,-160 406.62,-160 311.88,-160 311.88,-160 305.88,-160 299.88,-154 299.88,-148 299.88,-148 299.88,-128 299.88,-128 299.88,-122 305.88,-116 311.88,-116"/>
<text text-anchor="middle" x="359.25" y="-142.7" font-family="Times,serif" font-size="14.00">x ◇ x = y ◇ z (41)</text>
<text text-anchor="middle" x="359.25" y="-124.7" font-family="Times,serif" font-size="14.00">x ◇ y = z ◇ w (46)</text>
</g>
<!-- SCC1&#45;&#45;SCC12 -->
<g id="edge6" class="edge">
<title>SCC1&#45;&#45;SCC12</title>
<path fill="none" stroke="black" d="M262.75,-304.55C283.72,-268.57 325.74,-196.49 346.72,-160.49"/>
</g>
<!-- SCC17 -->
<g id="node18" class="node">
<title>SCC17</title>
<text text-anchor="middle" x="431.25" y="-228.2" font-family="Times,serif" font-size="14.00">x = x ◇ y (4)</text>
</g>
<!-- SCC1&#45;&#45;SCC17 -->
<g id="edge18" class="edge">
<title>SCC1&#45;&#45;SCC17</title>
<path fill="none" stroke="black" d="M292.23,-304.55C324.5,-288.05 368.45,-265.59 398.24,-250.37"/>
</g>
<!-- SCC2&#45;&#45;SCC12 -->
<g id="edge5" class="edge">
<title>SCC2&#45;&#45;SCC12</title>
<path fill="none" stroke="black" d="M924.9,-304.79C913.53,-278.91 890.56,-235.94 856.25,-214.5 784.28,-169.52 534.78,-149.31 419.06,-142.19"/>
</g>
<!-- SCC18 -->
<g id="node19" class="node">
<title>SCC18</title>
<text text-anchor="middle" x="800.25" y="-228.2" font-family="Times,serif" font-size="14.00">x = y ◇ x (5)</text>
</g>
<!-- SCC2&#45;&#45;SCC18 -->
<g id="edge29" class="edge">
<title>SCC2&#45;&#45;SCC18</title>
<path fill="none" stroke="black" d="M902.4,-304.55C878.61,-288 846.18,-265.45 824.3,-250.22"/>
</g>
<!-- SCC4 -->
<g id="node5" class="node">
<title>SCC4</title>
<text text-anchor="middle" x="177.25" y="-417.2" font-family="Times,serif" font-size="14.00">x ◇ y = (y ◇ y) ◇ x (387)</text>
</g>
<!-- SCC3&#45;&#45;SCC4 -->
<g id="edge16" class="edge">
<title>SCC3&#45;&#45;SCC4</title>
<path fill="none" stroke="black" d="M186.94,-493.53C184.81,-477.95 181.68,-454.98 179.56,-439.42"/>
</g>
<!-- SCC4&#45;&#45;SCC12 -->
<g id="edge3" class="edge">
<title>SCC4&#45;&#45;SCC12</title>
<path fill="none" stroke="black" d="M173.6,-403.86C169.33,-380.51 164.56,-337.2 179.25,-304.5 208.74,-238.87 278.09,-187.59 321.59,-160.44"/>
</g>
<!-- SCC5&#45;&#45;SCC12 -->
<g id="edge4" class="edge">
<title>SCC5&#45;&#45;SCC12</title>
<path fill="none" stroke="black" d="M113.46,-214.53C166.16,-198.34 245.33,-174.01 299.49,-157.36"/>
</g>
<!-- SCC7 -->
<g id="node8" class="node">
<title>SCC7</title>
<text text-anchor="middle" x="431.25" y="-417.2" font-family="Times,serif" font-size="14.00">x ◇ (y ◇ z) = (x ◇ y) ◇ w (4513)</text>
</g>
<!-- SCC6&#45;&#45;SCC7 -->
<g id="edge23" class="edge">
<title>SCC6&#45;&#45;SCC7</title>
<path fill="none" stroke="black" d="M478.87,-493.53C468.43,-477.95 453.03,-454.98 442.59,-439.42"/>
</g>
<!-- SCC9 -->
<g id="node10" class="node">
<title>SCC9</title>
<text text-anchor="middle" x="651.25" y="-417.2" font-family="Times,serif" font-size="14.00">x ◇ (y ◇ z) = (w ◇ y) ◇ z (4564)</text>
</g>
<!-- SCC6&#45;&#45;SCC9 -->
<g id="edge25" class="edge">
<title>SCC6&#45;&#45;SCC9</title>
<path fill="none" stroke="black" d="M521.29,-493.53C549.8,-477.95 591.82,-454.98 620.3,-439.42"/>
</g>
<!-- SCC8 -->
<g id="node9" class="node">
<title>SCC8</title>
<text text-anchor="middle" x="431.25" y="-322.7" font-family="Times,serif" font-size="14.00">x ◇ (y ◇ z) = (x ◇ w) ◇ u (4522)</text>
</g>
<!-- SCC7&#45;&#45;SCC8 -->
<g id="edge24" class="edge">
<title>SCC7&#45;&#45;SCC8</title>
<path fill="none" stroke="black" d="M431.25,-403.53C431.25,-386.84 431.25,-361.51 431.25,-344.86"/>
</g>
<!-- SCC11 -->
<g id="node12" class="node">
<title>SCC11</title>
<text text-anchor="middle" x="597.25" y="-228.2" font-family="Times,serif" font-size="14.00">x ◇ (y ◇ z) = (w ◇ u) ◇ v (4582)</text>
</g>
<!-- SCC8&#45;&#45;SCC11 -->
<g id="edge27" class="edge">
<title>SCC8&#45;&#45;SCC11</title>
<path fill="none" stroke="black" d="M461.7,-309.03C491.65,-292.34 537.11,-267.01 567,-250.36"/>
</g>
<!-- SCC8&#45;&#45;SCC17 -->
<g id="edge19" class="edge">
<title>SCC8&#45;&#45;SCC17</title>
<path fill="none" stroke="black" d="M431.25,-309.03C431.25,-292.34 431.25,-267.01 431.25,-250.36"/>
</g>
<!-- SCC10 -->
<g id="node11" class="node">
<title>SCC10</title>
<text text-anchor="middle" x="702.25" y="-322.7" font-family="Times,serif" font-size="14.00">x ◇ (y ◇ z) = (w ◇ u) ◇ z (4579)</text>
</g>
<!-- SCC9&#45;&#45;SCC10 -->
<g id="edge26" class="edge">
<title>SCC9&#45;&#45;SCC10</title>
<path fill="none" stroke="black" d="M660.6,-403.53C669.81,-386.84 683.77,-361.51 692.96,-344.86"/>
</g>
<!-- SCC10&#45;&#45;SCC11 -->
<g id="edge28" class="edge">
<title>SCC10&#45;&#45;SCC11</title>
<path fill="none" stroke="black" d="M682.99,-309.03C664.05,-292.34 635.29,-267.01 616.39,-250.36"/>
</g>
<!-- SCC10&#45;&#45;SCC18 -->
<g id="edge31" class="edge">
<title>SCC10&#45;&#45;SCC18</title>
<path fill="none" stroke="black" d="M720.22,-309.03C737.91,-292.34 764.75,-267.01 782.39,-250.36"/>
</g>
<!-- SCC11&#45;&#45;SCC12 -->
<g id="edge7" class="edge">
<title>SCC11&#45;&#45;SCC12</title>
<path fill="none" stroke="black" d="M553.6,-214.53C514.41,-199.3 456.71,-176.88 414.36,-160.42"/>
</g>
<!-- SCC19 -->
<g id="node20" class="node">
<title>SCC19</title>
<path fill="none" stroke="black" d="M491.62,-0.5C491.62,-0.5 554.88,-0.5 554.88,-0.5 560.88,-0.5 566.88,-6.5 566.88,-12.5 566.88,-12.5 566.88,-49 566.88,-49 566.88,-55 560.88,-61 554.88,-61 554.88,-61 491.62,-61 491.62,-61 485.62,-61 479.62,-55 479.62,-49 479.62,-49 479.62,-12.5 479.62,-12.5 479.62,-6.5 485.62,-0.5 491.62,-0.5"/>
<text text-anchor="middle" x="523.25" y="-43.7" font-family="Times,serif" font-size="14.00">x = y (2)</text>
<text text-anchor="middle" x="523.25" y="-27.2" font-family="Times,serif" font-size="14.00">x = y ◇ y (6)</text>
<text text-anchor="middle" x="523.25" y="-9.2" font-family="Times,serif" font-size="14.00">x = y ◇ z (7)</text>
</g>
<!-- SCC12&#45;&#45;SCC19 -->
<g id="edge9" class="edge">
<title>SCC12&#45;&#45;SCC19</title>
<path fill="none" stroke="black" d="M392.44,-115.7C417.43,-99.66 451.93,-77.52 479.22,-60"/>
</g>
<!-- SCC13&#45;&#45;SCC19 -->
<g id="edge8" class="edge">
<title>SCC13&#45;&#45;SCC19</title>
<path fill="none" stroke="black" d="M891.72,-120.09C800.22,-98.15 643.34,-60.54 567.23,-42.29"/>
</g>
<!-- SCC16 -->
<g id="node17" class="node">
<title>SCC16</title>
<text text-anchor="middle" x="817.25" y="-417.2" font-family="Times,serif" font-size="14.00">x = x ◇ x (3)</text>
</g>
<!-- SCC14&#45;&#45;SCC16 -->
<g id="edge14" class="edge">
<title>SCC14&#45;&#45;SCC16</title>
<path fill="none" stroke="black" d="M817.25,-493.53C817.25,-477.95 817.25,-454.98 817.25,-439.42"/>
</g>
<!-- SCC15&#45;&#45;SCC16 -->
<g id="edge15" class="edge">
<title>SCC15&#45;&#45;SCC16</title>
<path fill="none" stroke="black" d="M698.59,-493.53C724.62,-477.95 762.99,-454.98 788.99,-439.42"/>
</g>
<!-- SCC16&#45;&#45;SCC17 -->
<g id="edge17" class="edge">
<title>SCC16&#45;&#45;SCC17</title>
<path fill="none" stroke="black" d="M773.75,-407.28C710.66,-388.04 600.36,-354.08 592.25,-349.5 565.93,-334.63 565.35,-322.75 541.25,-304.5 514.79,-284.47 482.74,-264.19 460.07,-250.47"/>
</g>
<!-- SCC16&#45;&#45;SCC18 -->
<g id="edge30" class="edge">
<title>SCC16&#45;&#45;SCC18</title>
<path fill="none" stroke="black" d="M817.18,-403.55C816.93,-380.91 815.96,-339.58 812.25,-304.5 810.28,-285.85 806.5,-264.68 803.71,-250.35"/>
</g>
<!-- SCC17&#45;&#45;SCC19 -->
<g id="edge10" class="edge">
<title>SCC17&#45;&#45;SCC19</title>
<path fill="none" stroke="black" d="M438.94,-214.81C454.53,-180.96 490.05,-103.84 509.64,-61.29"/>
</g>
<!-- SCC18&#45;&#45;SCC19 -->
<g id="edge11" class="edge">
<title>SCC18&#45;&#45;SCC19</title>
<path fill="none" stroke="black" d="M777.11,-214.81C730.17,-180.96 623.22,-103.84 564.22,-61.29"/>
</g>
</g>
</svg>
